<svg xmlns="http://www.w3.org/2000/svg" viewBox="0 0 117.71 70.73"><defs><style>.cls-1{fill:#8879ff;}.cls-2{fill:#fff;}</style></defs><title>Asset 2</title><g id="Layer_2" data-name="Layer 2"><g id="Layer_1-2" data-name="Layer 1"><polygon class="cls-1" points="18.24 43.69 4.91 70.34 2.48 46.55 20.63 68.72 18.24 43.69"/><path class="cls-2" d="M4.55,26.54A12.21,12.21,0,0,1,0,24.22l1.71-3.85a13.4,13.4,0,0,0,4,2.12,14.78,14.78,0,0,0,4.78.82,8.22,8.22,0,0,0,4.44-1,2.88,2.88,0,0,0,1.46-2.51A2.41,2.41,0,0,0,15.59,18a5.69,5.69,0,0,0-2.07-1.17c-.84-.28-2-.59-3.43-.95A39.77,39.77,0,0,1,5.16,14.4a8.16,8.16,0,0,1-3.24-2.27A6.12,6.12,0,0,1,.57,8a7.13,7.13,0,0,1,1.2-4A8.16,8.16,0,0,1,5.39,1.07,14.64,14.64,0,0,1,11.31,0a19,19,0,0,1,4.8.61,13.38,13.38,0,0,1,4.07,1.75L18.62,6.21A15.06,15.06,0,0,0,15,4.65a13.51,13.51,0,0,0-3.69-.54,7.72,7.72,0,0,0-4.36,1A3.07,3.07,0,0,0,5.48,7.73,2.42,2.42,0,0,0,6.3,9.6a6,6,0,0,0,2.07,1.14c.84.28,2,.6,3.43.95a35.47,35.47,0,0,1,4.88,1.43,8.23,8.23,0,0,1,3.25,2.27,6,6,0,0,1,1.35,4.11,7,7,0,0,1-1.19,4,8.2,8.2,0,0,1-3.64,2.85,14.84,14.84,0,0,1-5.94,1.07A20.09,20.09,0,0,1,4.55,26.54Z"/><path class="cls-2" d="M52.13.38V27h-5V15.61H33.39V27H28.44V.38h4.95v11H47.18V.38Z"/><path class="cls-2" d="M100.41,4.57H91.58V.38h22.61V4.57h-8.83V27h-5Z"/><path class="cls-2" d="M23.15,43.69V70.34H19.54L4.91,52.78V70.34H0V43.69H3.37l14.87,18v-18Z"/><path class="cls-2" d="M42,69a13.11,13.11,0,0,1-5.1-4.89,14.34,14.34,0,0,1,0-14.09A13.16,13.16,0,0,1,42,45.08a15,15,0,0,1,7.3-1.77,15.28,15.28,0,0,1,6,1.14,12.2,12.2,0,0,1,4.56,3.31l-3.2,3a9.33,9.33,0,0,0-7.12-3.12,10,10,0,0,0-4.91,1.2,8.62,8.62,0,0,0-3.39,3.33,10.19,10.19,0,0,0,0,9.67,8.62,8.62,0,0,0,3.39,3.33,10,10,0,0,0,4.91,1.2,9.26,9.26,0,0,0,7.12-3.16l3.2,3a12,12,0,0,1-4.59,3.31,15.34,15.34,0,0,1-6,1.15A15,15,0,0,1,42,69Z"/><path class="cls-2" d="M69.14,67.62q-3.08-3.11-3.08-8.89v-15h5V58.54q0,7.85,6.78,7.84t6.74-7.84V43.69H89.4v15q0,5.79-3.06,8.89t-8.59,3.11Q72.23,70.73,69.14,67.62Z"/><path class="cls-2" d="M103.93,47.88H95.09V43.69h22.62v4.19h-8.83V70.34h-4.95Z"/><path class="cls-2" d="M66.53,25.65a13.08,13.08,0,0,1-5.14-4.92,13.5,13.5,0,0,1-1.87-7,13.56,13.56,0,0,1,1.87-7,13.13,13.13,0,0,1,5.14-4.91,16.15,16.15,0,0,1,14.7,0,13.1,13.1,0,0,1,5.14,4.9,13.49,13.49,0,0,1,1.86,7,13.47,13.47,0,0,1-1.86,7,13.1,13.1,0,0,1-5.14,4.9,16.15,16.15,0,0,1-14.7,0Zm12.15-3.77A8.7,8.7,0,0,0,82,18.53a9.65,9.65,0,0,0,1.22-4.82A9.65,9.65,0,0,0,82,8.89a8.7,8.7,0,0,0-3.35-3.35,10.2,10.2,0,0,0-9.6,0,8.7,8.7,0,0,0-3.35,3.35,9.65,9.65,0,0,0-1.22,4.82,9.65,9.65,0,0,0,1.22,4.82,8.7,8.7,0,0,0,3.35,3.35,10.2,10.2,0,0,0,9.6,0Z"/></g></g></svg>